<svg xmlns="http://www.w3.org/2000/svg" xmlns:xlink="http://www.w3.org/1999/xlink" width="88" height="74.45" viewBox="0 0 88 74.45">
  <defs>
    <linearGradient id="linear-gradient" x1="0.292" y1="0.5" x2="2.192" y2="0.5" gradientUnits="objectBoundingBox">
      <stop offset="0" stop-color="#fff0d5"/>
      <stop offset="0.001" stop-color="#ffeee2"/>
      <stop offset="0.511" stop-color="#c7daff"/>
      <stop offset="1" stop-color="#e6efff"/>
    </linearGradient>
  </defs>
  <g id="app" transform="translate(0.001 -39.418)">
    <path id="Path_833" data-name="Path 833" d="M70.163,62.11a18.612,18.612,0,0,1-9.618-8.315,20.821,20.821,0,0,0-36.9.743,19.181,19.181,0,0,1-9.984,9.24C7.24,66.368,1.851,72.289.141,81.546a8.472,8.472,0,0,0,0,3.076c2.655,14.364,14.162,20.7,24.635,19.02a19.29,19.29,0,0,1,16.15,5.064c8.84,8.231,23.011,10.812,36.768,1.989a19,19,0,0,0,4.807-4.815C94.352,87.373,85.572,68.116,70.163,62.11Z" transform="translate(0 -2.953)" fill="url(#linear-gradient)"/>
    <path id="Path_835" data-name="Path 835" d="M165.872,70.254v62.637a2.918,2.918,0,0,1-2.7,3.093H132.656a2.918,2.918,0,0,1-2.7-3.093V70.254a2.918,2.918,0,0,1,2.7-3.093h30.513a2.918,2.918,0,0,1,2.7,3.093Z" transform="translate(-104.618 -22.975)" fill="#f5f4f9"/>
    <path id="Path_836" data-name="Path 836" d="M345.017,307.923v11.731h-3.278a1.722,1.722,0,0,1-1.713-1.73v-8.269a1.723,1.723,0,0,1,1.713-1.732h3.278Z" transform="translate(-281.585 -222.356)" fill="#e8e6ed"/>
    <path id="Path_837" data-name="Path 837" d="M135.336,159.678v12.192a1.293,1.293,0,0,1-1.285,1.3h-4.1V158.377h4.1A1.293,1.293,0,0,1,135.336,159.678Z" transform="translate(-107.618 -98.513)" fill="#e8e6ed"/>
    <path id="Path_838" data-name="Path 838" d="M135.336,285.593V308.16a1.293,1.293,0,0,1-1.285,1.3h-4.1V284.292h4.1A1.293,1.293,0,0,1,135.336,285.593Z" transform="translate(-107.618 -202.787)" fill="#e8e6ed"/>
    <path id="Path_839" data-name="Path 839" d="M327.451,138.175v20.289h-6.912a1.726,1.726,0,0,1-1.725-1.725V139.9a1.726,1.726,0,0,1,1.725-1.725h6.912Z" transform="translate(-264.019 -81.783)" fill="#e8e6ed"/>
    <path id="Path_840" data-name="Path 840" d="M165.872,84.97v-14.7a2.922,2.922,0,0,0-2.688-3.109H132.641a2.922,2.922,0,0,0-2.688,3.109v14.7Z" transform="translate(-104.618 -22.973)" fill="#ffd1b1"/>
    <path id="Path_841" data-name="Path 841" d="M191.2,71.422l1.113-4.264H170.237l1.113,4.264a1.261,1.261,0,0,0,1.143,1.035h17.561A1.26,1.26,0,0,0,191.2,71.422Z" transform="translate(-137.979 -22.972)" fill="#9fc1ff"/>
    <g id="Group_242" data-name="Group 242" transform="translate(24.475 43.326)">
      <path id="Path_842" data-name="Path 842" d="M186.034,69.175H168.229a2,2,0,0,1-1.83-1.631L165.27,63.28a.909.909,0,0,1,.455-1.081.689.689,0,0,1,.888.554l1.128,4.264a.537.537,0,0,0,.487.439h17.806a.537.537,0,0,0,.487-.44l1.128-4.264a.689.689,0,0,1,.888-.554.909.909,0,0,1,.455,1.081l-1.128,4.264A2,2,0,0,1,186.034,69.175Z" transform="translate(-158.312 -62.157)" fill="#203284"/>
      <path id="Path_843" data-name="Path 843" d="M159.117,377.462h-30.69a3.74,3.74,0,0,1-3.474-3.952v-5.372a.762.762,0,1,1,1.511,0v5.372a2.114,2.114,0,0,0,1.963,2.233h30.69a2.114,2.114,0,0,0,1.963-2.233V358.579a.762.762,0,1,1,1.511,0V373.51A3.74,3.74,0,0,1,159.117,377.462Z" transform="translate(-124.953 -306.92)" fill="#203284"/>
      <path id="Path_844" data-name="Path 844" d="M364.925,248.3a.859.859,0,0,1-.859-.859v-8.25a.859.859,0,0,1,1.719,0v8.25A.859.859,0,0,1,364.925,248.3Z" transform="translate(-328.147 -208.055)" fill="#203284"/>
      <path id="Path_845" data-name="Path 845" d="M125.708,76.464a.813.813,0,0,1-.755-.859V66.111a3.74,3.74,0,0,1,3.474-3.952h30.69a3.74,3.74,0,0,1,3.474,3.952v6.162a.762.762,0,1,1-1.511,0V66.111a2.114,2.114,0,0,0-1.963-2.233h-30.69a2.114,2.114,0,0,0-1.963,2.233V75.6a.812.812,0,0,1-.755.859Z" transform="translate(-124.953 -62.159)" fill="#203284"/>
      <path id="Path_846" data-name="Path 846" d="M125.812,235.407a.859.859,0,0,1-.859-.859v-6.353a.859.859,0,1,1,1.719,0v6.353A.859.859,0,0,1,125.812,235.407Z" transform="translate(-124.953 -198.945)" fill="#203284"/>
    </g>
    <path id="Path_848" data-name="Path 848" d="M223.541,317.862H212.15a.886.886,0,0,1,0-1.772h11.391a.886.886,0,0,1,0,1.772Z" transform="translate(-174.962 -229.119)" fill="#ddd9e4"/>
    <path id="Path_849" data-name="Path 849" d="M235.3,336.978h-5.232a.886.886,0,0,1,0-1.772H235.3a.886.886,0,0,1,0,1.772Z" transform="translate(-189.799 -244.95)" fill="#203284"/>
    <ellipse id="Ellipse_40" data-name="Ellipse 40" cx="0.956" cy="0.967" rx="0.956" ry="0.967" transform="translate(44.82 100.935)" fill="#f1a069"/>
    <ellipse id="Ellipse_41" data-name="Ellipse 41" cx="0.956" cy="0.967" rx="0.956" ry="0.967" transform="translate(41.927 100.935)" fill="#f1a069"/>
    <ellipse id="Ellipse_42" data-name="Ellipse 42" cx="0.956" cy="0.967" rx="0.956" ry="0.967" transform="translate(39.034 100.935)" fill="#f1a069"/>
    <path id="Path_850" data-name="Path 850" d="M351.343,304.663h-9.6a1.721,1.721,0,0,1-1.712-1.73v-8.27a1.721,1.721,0,0,1,1.712-1.73h9.6a1.721,1.721,0,0,1,1.712,1.73v8.27A1.721,1.721,0,0,1,351.343,304.663Z" transform="translate(-281.589 -209.942)" fill="#abc8ff"/>
    <path id="Path_851" data-name="Path 851" d="M347.2,301.382h-9.6a2.583,2.583,0,0,1-2.571-2.59v-8.27a2.583,2.583,0,0,1,2.571-2.59h9.6a2.583,2.583,0,0,1,2.571,2.59v8.27A2.583,2.583,0,0,1,347.2,301.382Zm-9.6-11.731a.863.863,0,0,0-.852.871v8.27a.863.863,0,0,0,.852.871h9.6a.863.863,0,0,0,.852-.871v-8.27a.863.863,0,0,0-.852-.871h-9.6Z" transform="translate(-277.449 -205.802)" fill="#203284"/>
    <path id="Path_853" data-name="Path 853" d="M56.823,157.064H39.689a1.2,1.2,0,0,1-1.189-1.2V144.588a1.2,1.2,0,0,1,1.189-1.2H56.823a1.2,1.2,0,0,1,1.189,1.2v11.274A1.2,1.2,0,0,1,56.823,157.064Z" transform="translate(-29.089 -85.542)" fill="#ffac72"/>
    <path id="Path_854" data-name="Path 854" d="M52.618,153.654H35.484a1.993,1.993,0,0,1-1.984-2V140.383a1.993,1.993,0,0,1,1.984-2H52.618a1.993,1.993,0,0,1,1.984,2v11.274A1.993,1.993,0,0,1,52.618,153.654ZM35.484,139.975a.4.4,0,0,0-.395.407v11.274a.4.4,0,0,0,.395.408H52.618a.4.4,0,0,0,.395-.408V140.383a.4.4,0,0,0-.395-.407Z" transform="translate(-24.884 -81.336)" fill="#203284"/>
    <path id="Path_855" data-name="Path 855" d="M62.37,174.732a.783.783,0,0,1-.559-.234l-1.9-1.924a.805.805,0,0,1,0-1.13l1.9-1.924a.785.785,0,0,1,1.118,0,.805.805,0,0,1,0,1.13l-1.344,1.359,1.344,1.359a.805.805,0,0,1,0,1.13A.783.783,0,0,1,62.37,174.732Z" transform="translate(-46.9 -107.326)" fill="#f5f4f9"/>
    <path id="Path_856" data-name="Path 856" d="M118.964,169.287a.783.783,0,0,1,.559.234l1.9,1.924a.805.805,0,0,1,0,1.13l-1.9,1.924a.785.785,0,0,1-1.118,0,.805.805,0,0,1,0-1.13l1.344-1.359-1.344-1.359a.805.805,0,0,1,0-1.13.783.783,0,0,1,.559-.234Z" transform="translate(-96.1 -107.326)" fill="#f5f4f9"/>
    <path id="Path_857" data-name="Path 857" d="M88.94,174.732a.78.78,0,0,1-.388-.1.8.8,0,0,1-.3-1.089l2.149-3.847a.786.786,0,0,1,1.077-.3.8.8,0,0,1,.3,1.089l-2.149,3.847A.789.789,0,0,1,88.94,174.732Z" transform="translate(-70.848 -107.326)" fill="#f5f4f9"/>
    <path id="Path_858" data-name="Path 858" d="M56.823,292.572H39.689a1.2,1.2,0,0,1-1.189-1.2V270.5a1.2,1.2,0,0,1,1.189-1.2H56.823a1.2,1.2,0,0,1,1.189,1.2V291.37A1.2,1.2,0,0,1,56.823,292.572Z" transform="translate(-28.089 -189.424)" fill="#f96e0f"/>
    <path id="Path_859" data-name="Path 859" d="M52.618,289.161H35.484a1.993,1.993,0,0,1-1.984-2V266.3a1.993,1.993,0,0,1,1.984-2h8.989a.795.795,0,1,1,0,1.589H35.484a.4.4,0,0,0-.395.408v20.868a.4.4,0,0,0,.395.407H52.618a.4.4,0,0,0,.395-.407V266.3a.4.4,0,0,0-.395-.408H48.829a.795.795,0,1,1,0-1.589h3.789a1.993,1.993,0,0,1,1.984,2v20.868A1.993,1.993,0,0,1,52.618,289.161Z" transform="translate(-23.884 -185.218)" fill="#203284"/>
    <path id="Path_860" data-name="Path 860" d="M339.875,142.061H320.421a1.6,1.6,0,0,1-1.6-1.6V124.787a1.6,1.6,0,0,1,1.6-1.6h19.454a1.6,1.6,0,0,1,1.6,1.6v15.669A1.6,1.6,0,0,1,339.875,142.061Z" transform="translate(-263.175 -68.663)" fill="#f5f4f9"/>
    <path id="Path_861" data-name="Path 861" d="M421.98,123.183h-5.438v18.878h5.438a1.6,1.6,0,0,0,1.6-1.613V124.8a1.6,1.6,0,0,0-1.6-1.613Z" transform="translate(-345.271 -68.663)" fill="#86acf5"/>
    <path id="Path_862" data-name="Path 862" d="M341.479,128.452V124.8a1.6,1.6,0,0,0-1.6-1.613H320.413a1.6,1.6,0,0,0-1.6,1.613v3.656Z" transform="translate(-263.175 -68.663)" fill="#ffc136"/>
    <path id="Path_863" data-name="Path 863" d="M335.683,138.66H316.212a2.407,2.407,0,0,1-2.4-2.413V120.6a2.407,2.407,0,0,1,2.4-2.413h19.471a2.407,2.407,0,0,1,2.4,2.413v3.656a.8.8,0,1,1-1.6,0V120.6a.806.806,0,0,0-.8-.813H316.212a.806.806,0,0,0-.8.813v15.652a.806.806,0,0,0,.8.813h19.471a.806.806,0,0,0,.8-.813v-7.565a.8.8,0,1,1,1.6,0v7.565A2.407,2.407,0,0,1,335.683,138.66Z" transform="translate(-258.975 -64.463)" fill="#203284"/>
    <path id="Path_864" data-name="Path 864" d="M337.279,152.727H314.617a.8.8,0,1,1,0-1.6h22.662a.8.8,0,1,1,0,1.6Z" transform="translate(-258.975 -92.139)" fill="#203284"/>
    <path id="Path_865" data-name="Path 865" d="M350.736,209.206h-7.914a.806.806,0,0,1,0-1.612h7.914a.806.806,0,0,1,0,1.612Z" transform="translate(-282.672 -139.574)" fill="#ddd9e4"/>
    <path id="Path_866" data-name="Path 866" d="M346.428,188.275h-3.606a.806.806,0,0,1,0-1.612h3.606a.806.806,0,0,1,0,1.612Z" transform="translate(-282.672 -121.991)" fill="#ddd9e4"/>
    <path id="Path_867" data-name="Path 867" d="M75.806,336.352H66.539a.8.8,0,0,1,0-1.6h9.267a.8.8,0,0,1,0,1.6Z" transform="translate(-51.006 -244.472)" fill="#f5f4f9"/>
    <path id="Path_868" data-name="Path 868" d="M83.954,309.405H78.483a.8.8,0,0,1,0-1.6h5.471a.8.8,0,0,1,0,1.6Z" transform="translate(-61.052 -221.808)" fill="#f5f5f5"/>
    <path id="Path_869" data-name="Path 869" d="M75.806,354.245H66.539a.8.8,0,0,1,0-1.6h9.267a.8.8,0,0,1,0,1.6Z" transform="translate(-51.006 -259.522)" fill="#f5f4f9"/>
    <path id="Path_870" data-name="Path 870" d="M75.806,372.139H66.539a.8.8,0,0,1,0-1.6h9.267a.8.8,0,0,1,0,1.6Z" transform="translate(-51.006 -274.572)" fill="#f5f4f9"/>
    <path id="Path_871" data-name="Path 871" d="M449.3,359.98a.86.86,0,0,1-.611-.255l-1.886-1.906a.86.86,0,0,1,0-1.209l1.886-1.906a.86.86,0,0,1,1.222,0l1.886,1.906a.86.86,0,0,1,0,1.209l-1.886,1.906A.861.861,0,0,1,449.3,359.98Zm-.677-2.766.677.684.677-.684-.677-.684Z" transform="translate(-369.805 -260.885)" fill="#3970d6"/>
    <path id="Path_872" data-name="Path 872" d="M398.939,388.182a.86.86,0,0,1-.611-.255l-1.886-1.906a.859.859,0,0,1,0-1.209l1.886-1.906a.86.86,0,0,1,1.222,0l1.886,1.906a.86.86,0,0,1,0,1.209l-1.886,1.906A.86.86,0,0,1,398.939,388.182Zm-.677-2.766.677.684.677-.684-.677-.684Z" transform="translate(-328.099 -284.24)" fill="#f96e0f"/>
    <path id="Path_873" data-name="Path 873" d="M76.091,96.021a.859.859,0,0,1-.859-.859,1.034,1.034,0,0,0-1.022-1.043.859.859,0,0,1,0-1.719,1.034,1.034,0,0,0,1.022-1.043.859.859,0,1,1,1.719,0A1.034,1.034,0,0,0,77.973,92.4a.859.859,0,0,1,0,1.719,1.034,1.034,0,0,0-1.022,1.043A.859.859,0,0,1,76.091,96.021Z" transform="translate(-60.744 -42.301)" fill="#3970d6"/>
    <path id="Path_874" data-name="Path 874" d="M94.378,44.941a.859.859,0,0,1-.859-.859A1.034,1.034,0,0,0,92.5,43.039a.859.859,0,0,1,0-1.719,1.034,1.034,0,0,0,1.022-1.043.859.859,0,1,1,1.719,0A1.034,1.034,0,0,0,96.26,41.32a.859.859,0,1,1,0,1.719,1.034,1.034,0,0,0-1.022,1.043A.859.859,0,0,1,94.378,44.941Z" transform="translate(-75.888)" fill="#f96e0f"/>
  </g>
</svg>
