<svg xmlns="http://www.w3.org/2000/svg" xmlns:xlink="http://www.w3.org/1999/xlink" width="60.006" height="70.954" viewBox="0 0 60.006 70.954">
  <defs>
    <linearGradient id="linear-gradient" x1="0.292" y1="0.5" x2="2.192" y2="0.5" gradientUnits="objectBoundingBox">
      <stop offset="0" stop-color="#fff0d5"/>
      <stop offset="0" stop-color="#ffeee2"/>
      <stop offset="0.511" stop-color="#c7daff"/>
      <stop offset="1" stop-color="#e6efff"/>
    </linearGradient>
  </defs>
  <g id="customer-service_1_" data-name="customer-service (1)" transform="translate(-39.503 0)">
    <path id="Path_919" data-name="Path 919" d="M105.4,23.821a13.418,13.418,0,0,0-3.98-2.739,17.244,17.244,0,0,1-8.652-8.809A20.532,20.532,0,1,0,57.178,32.343a17.709,17.709,0,0,1,2.359,15.478c-2.323,7.464-1.513,14.537,2.906,18.957,7.745,7.745,23.64,4.407,35.5-7.455S113.146,31.566,105.4,23.821Z" transform="translate(-12.005)" fill="url(#linear-gradient)"/>
    <g id="Group_263" data-name="Group 263" transform="translate(40.191 11.245)">
      <path id="Path_920" data-name="Path 920" d="M181.887,112.51a.691.691,0,0,0,.49-.2l.847-.847a.693.693,0,0,0-.98-.98l-.847.847a.693.693,0,0,0,.49,1.183Z" transform="translate(-162.246 -106.239)" fill="#00c" opacity="0.1"/>
      <path id="Path_921" data-name="Path 921" d="M164.754,98.5a.7.7,0,0,0,.111.009.693.693,0,0,0,.683-.583l.235-1.46a.693.693,0,0,0-1.368-.22l-.235,1.46A.693.693,0,0,0,164.754,98.5Z" transform="translate(-147.582 -93.654)" fill="#00c" opacity="0.1"/>
      <path id="Path_922" data-name="Path 922" d="M191.39,132.758a.693.693,0,0,0,.683.583.7.7,0,0,0,.111-.009l1.46-.234a.693.693,0,1,0-.22-1.368l-1.46.234A.693.693,0,0,0,191.39,132.758Z" transform="translate(-171.021 -124.711)" fill="#00c" opacity="0.1"/>
      <path id="Path_923" data-name="Path 923" d="M391.984,320.217l-.847.847a.693.693,0,0,0,.98.98l.847-.847a.693.693,0,1,0-.98-.98Z" transform="translate(-342.92 -286.911)" fill="#00c" opacity="0.1"/>
      <path id="Path_924" data-name="Path 924" d="M374.6,308.252a.693.693,0,0,0,.683-.583l.235-1.46a.693.693,0,1,0-1.368-.22l-.235,1.46a.693.693,0,0,0,.574.794A.7.7,0,0,0,374.6,308.252Z" transform="translate(-328.255 -274.327)" fill="#00c" opacity="0.1"/>
      <path id="Path_925" data-name="Path 925" d="M401.129,342.5a.693.693,0,0,0,.683.583.7.7,0,0,0,.111-.009l1.46-.234a.693.693,0,1,0-.22-1.368l-1.46.234A.693.693,0,0,0,401.129,342.5Z" transform="translate(-351.694 -305.384)" fill="#00c" opacity="0.1"/>
      <path id="Path_926" data-name="Path 926" d="M83.258,122.11a1.386,1.386,0,0,0-1.96,0L77.107,126.3a1.385,1.385,0,0,0,0,1.96l1.645,1.645-2.646,2.646L57.327,113.773l2.646-2.646,1.645,1.645a1.385,1.385,0,0,0,1.96,0l4.191-4.191a1.386,1.386,0,0,0,0-1.96L54.287,93.139a1.386,1.386,0,0,0-1.96,0l-4.191,4.191a1.385,1.385,0,0,0,0,1.96l1.646,1.646-3.1,3.1a7.575,7.575,0,0,0-.542,10.107.688.688,0,0,0-.312.484,26.327,26.327,0,0,0-.253,3.645A26.061,26.061,0,0,0,71.61,144.3a26.341,26.341,0,0,0,3.644-.253.689.689,0,0,0,.484-.312,7.574,7.574,0,0,0,10.108-.541l3.1-3.1,1.646,1.646a1.385,1.385,0,0,0,1.96,0l4.191-4.191a1.386,1.386,0,0,0,0-1.96Zm-11.648,20.8A24.673,24.673,0,0,1,46.965,118.27a25,25,0,0,1,.191-3.055l27.509,27.509A24.98,24.98,0,0,1,71.61,142.915Z" transform="translate(-44.468 -91.127)" fill="#00c" opacity="0.1"/>
    </g>
    <path id="Path_928" data-name="Path 928" d="M90.968,155.456l-5.125,5.125a7.574,7.574,0,0,1-10.711,0L46.683,132.132a7.574,7.574,0,0,1,0-10.711l5.125-5.125L62,126.486l-4.673,4.673L76.1,149.939l4.673-4.673Z" transform="translate(-4.275 -100.179)" fill="#f96e0f"/>
    <path id="Path_929" data-name="Path 929" d="M0,0H4.99V14.411H0Z" transform="translate(44.002 19.645) rotate(-45)" fill="#ff8b00"/>
    <path id="Path_930" data-name="Path 930" d="M0,0H4.99V14.411H0Z" transform="translate(72.965 48.615) rotate(-45)" fill="#ff8b00"/>
    <path id="Path_931" data-name="Path 931" d="M0,0H31.006V3.863H0Z" transform="translate(48.406 32.477) rotate(45)" fill="#ff2c2c"/>
    <path id="Path_932" data-name="Path 932" d="M88.052,87.582l-4.191,4.191a1.385,1.385,0,0,1-1.96,0L68.419,78.291a1.385,1.385,0,0,1,0-1.96L72.61,72.14a1.386,1.386,0,0,1,1.96,0L88.052,85.622A1.386,1.386,0,0,1,88.052,87.582Z" transform="translate(-24.559 -61.794)" fill="#3970d6"/>
    <path id="Path_933" data-name="Path 933" d="M0,0H8.7V3.639H0Z" transform="translate(51.448 24.09) rotate(-45)" fill="#6796ee"/>
    <path id="Path_934" data-name="Path 934" d="M297.1,296.631l-4.191,4.191a1.386,1.386,0,0,1-1.96,0L277.468,287.34a1.385,1.385,0,0,1,0-1.96l4.191-4.191a1.386,1.386,0,0,1,1.96,0L297.1,294.671A1.386,1.386,0,0,1,297.1,296.631Z" transform="translate(-204.638 -241.872)" fill="#3970d6"/>
    <path id="Path_935" data-name="Path 935" d="M0,0H8.7V3.639H0Z" transform="translate(76.137 48.784) rotate(-45)" fill="#6796ee"/>
    <path id="Path_937" data-name="Path 937" d="M79.471,96.317a2.078,2.078,0,0,0-2.94,0l-4.191,4.191a2.078,2.078,0,0,0,0,2.94L73.5,104.6l-1.665,1.665-17.8-17.8L55.7,86.8l1.156,1.156a2.085,2.085,0,0,0,2.94,0l4.191-4.192a2.082,2.082,0,0,0,0-2.939L50.5,67.347a2.079,2.079,0,0,0-2.941,0l-4.191,4.191a2.082,2.082,0,0,0,0,2.939l1.156,1.156L41.919,78.24a8.276,8.276,0,0,0-.388,11.271,26.343,26.343,0,0,0-.228,3.455A26.061,26.061,0,0,0,67.333,119a26.357,26.357,0,0,0,3.455-.228,8.273,8.273,0,0,0,11.271-.389l2.607-2.607,1.156,1.156a2.081,2.081,0,0,0,2.939,0l4.191-4.191a2.081,2.081,0,0,0,0-2.94ZM42.688,92.966c0-.723.036-1.448.1-2.168L69.5,117.512c-.72.063-1.445.1-2.168.1A24.673,24.673,0,0,1,42.688,92.966ZM81.079,117.4a6.889,6.889,0,0,1-9.731,0L42.9,88.951a6.889,6.889,0,0,1,0-9.731l3.094-3.094,0,0a.693.693,0,0,0,0-.98L44.349,73.5a.694.694,0,0,1,0-.979l4.191-4.191a.693.693,0,0,1,.981,0L63,81.808a.694.694,0,0,1,0,.98l-4.19,4.192a.7.7,0,0,1-.982,0L49.349,78.5a.693.693,0,0,0-.98.98l6.346,6.347-2.155,2.155a.693.693,0,0,0,0,.98l18.78,18.78a.693.693,0,0,0,.98,0l2.155-2.155,9.21,9.21Zm10.893-5.642-4.191,4.191a.694.694,0,0,1-.98,0L73.32,102.468a.693.693,0,0,1,0-.98L77.511,97.3a.693.693,0,0,1,.98,0l13.481,13.481A.694.694,0,0,1,91.972,111.758Z" transform="translate(0 -57.489)" fill="#203284"/>
    <path id="Path_938" data-name="Path 938" d="M181.887,91.51a.691.691,0,0,0,.49-.2l.847-.847a.693.693,0,1,0-.98-.98l-.847.847a.693.693,0,0,0,.49,1.183Z" transform="translate(-122.056 -76.904)" fill="#3970d6"/>
    <path id="Path_939" data-name="Path 939" d="M164.754,77.5a.7.7,0,0,0,.111.009.693.693,0,0,0,.683-.583l.235-1.46a.693.693,0,1,0-1.368-.22l-.235,1.46A.693.693,0,0,0,164.754,77.5Z" transform="translate(-107.391 -64.32)" fill="#3970d6"/>
    <path id="Path_940" data-name="Path 940" d="M191.39,111.758a.693.693,0,0,0,.683.583.7.7,0,0,0,.111-.009l1.46-.234a.693.693,0,0,0-.22-1.368l-1.46.234A.693.693,0,0,0,191.39,111.758Z" transform="translate(-130.831 -95.377)" fill="#3970d6"/>
    <path id="Path_941" data-name="Path 941" d="M392.964,299.218a.693.693,0,0,0-.98,0l-.847.847a.693.693,0,0,0,.98.98l.847-.847A.693.693,0,0,0,392.964,299.218Z" transform="translate(-302.729 -257.577)" fill="#3970d6"/>
    <path id="Path_942" data-name="Path 942" d="M374.153,284.988l-.235,1.46a.693.693,0,0,0,.574.794.7.7,0,0,0,.111.009.693.693,0,0,0,.683-.583l.235-1.46a.693.693,0,0,0-1.368-.22Z" transform="translate(-288.064 -244.991)" fill="#3970d6"/>
    <path id="Path_943" data-name="Path 943" d="M401.813,322.08a.7.7,0,0,0,.111-.009l1.46-.234a.693.693,0,0,0-.22-1.368l-1.46.234a.693.693,0,0,0,.109,1.377Z" transform="translate(-311.504 -276.049)" fill="#3970d6"/>
    <path id="Path_948" data-name="Path 948" d="M167.512,31.2a.69.69,0,0,1-.49-.2l-.9-.9-.9.9a.693.693,0,0,1-.98-.98l1.386-1.386a.693.693,0,0,1,.98,0L168,30.018a.693.693,0,0,1-.49,1.183Z" transform="translate(-107.285 -24.489)" fill="#f96e0f"/>
    <path id="Path_949" data-name="Path 949" d="M241.244,212.033a.69.69,0,0,1-.49-.2l-.9-.9-.9.9a.693.693,0,0,1-.98-.98l1.386-1.386a.693.693,0,0,1,.98,0l1.386,1.386a.693.693,0,0,1-.49,1.183Z" transform="translate(-170.799 -180.261)" fill="#3970d6"/>
    <path id="Path_950" data-name="Path 950" d="M218.035,466.343a.693.693,0,0,1-.49-1.183l1.386-1.386a.693.693,0,1,1,.98.98l-1.386,1.386A.69.69,0,0,1,218.035,466.343Z" transform="translate(-153.194 -399.328)" fill="#3970d6"/>
    <path id="Path_951" data-name="Path 951" d="M445.963,188.709a.69.69,0,0,1-.49-.2l-.9-.9-.9.9a.693.693,0,0,1-.98-.98l1.386-1.386a.693.693,0,0,1,.98,0l1.386,1.386a.693.693,0,0,1-.49,1.183Z" transform="translate(-347.147 -160.17)" fill="#f96e0f"/>
    <path id="Path_952" data-name="Path 952" d="M40.84,353.134a.693.693,0,0,1-.49-1.183l1.386-1.386a.693.693,0,1,1,.98.98l-1.386,1.386A.69.69,0,0,1,40.84,353.134Z" transform="translate(-0.555 -301.808)" fill="#f96e0f"/>
  </g>
</svg>
