<svg xmlns="http://www.w3.org/2000/svg" xmlns:xlink="http://www.w3.org/1999/xlink" width="84.326" height="70.987" viewBox="0 0 84.326 70.987">
  <defs>
    <linearGradient id="linear-gradient" x1="0.292" y1="0.5" x2="2.192" y2="0.5" gradientUnits="objectBoundingBox">
      <stop offset="0" stop-color="#fff0d5"/>
      <stop offset="0.001" stop-color="#ffeee2"/>
      <stop offset="0.511" stop-color="#c7daff"/>
      <stop offset="1" stop-color="#e6efff"/>
    </linearGradient>
  </defs>
  <g id="ecommerce" transform="translate(0.001 -40.493)">
    <path id="Path_806" data-name="Path 806" d="M67.234,58.82a17.835,17.835,0,0,1-9.217-7.968,19.952,19.952,0,0,0-35.36.712,18.38,18.38,0,0,1-9.567,8.854C6.938,62.9,1.774,68.575.135,77.445a8.118,8.118,0,0,0,0,2.947C2.677,94.157,13.7,100.228,23.739,98.618a18.485,18.485,0,0,1,15.476,4.852c8.471,7.888,22.05,10.361,35.233,1.906a18.21,18.21,0,0,0,4.606-4.614C90.413,83.029,82,64.575,67.234,58.82Z" transform="translate(0 0)" fill="url(#linear-gradient)"/>
    <path id="Path_808" data-name="Path 808" d="M161.941,63.986v61.752a2.478,2.478,0,0,1-2.475,2.475h-41.25a2.478,2.478,0,0,1-2.475-2.475V63.986a2.478,2.478,0,0,1,2.475-2.475h41.25A2.478,2.478,0,0,1,161.941,63.986Z" transform="translate(-96.679 -17.556)" fill="#f5f4f9"/>
    <path id="Path_809" data-name="Path 809" d="M161.941,63.986V81.464a6.747,6.747,0,0,1-9.241,0,6.742,6.742,0,0,1-9.24,0,6.742,6.742,0,0,1-9.24,0,6.742,6.742,0,0,1-9.24,0,6.747,6.747,0,0,1-9.241,0V63.986a2.478,2.478,0,0,1,2.475-2.475h41.25a2.478,2.478,0,0,1,2.475,2.475Z" transform="translate(-96.679 -17.556)" fill="#e8e6ed"/>
    <path id="Path_810" data-name="Path 810" d="M186,109.771h23.058v39H186Z" transform="translate(-155.367 -57.868)" fill="#e8e6ed"/>
    <path id="Path_811" data-name="Path 811" d="M209.058,109.771v13.434a6.744,6.744,0,0,1-6.909-1.431,6.742,6.742,0,0,1-9.24,0A6.744,6.744,0,0,1,186,123.205V109.771Z" transform="translate(-155.367 -57.868)" fill="#ddd9e4"/>
    <path id="Path_812" data-name="Path 812" d="M120.363,121.468a4.62,4.62,0,0,1-4.62-4.62v-7.074h9.24v7.074A4.62,4.62,0,0,1,120.363,121.468Z" transform="translate(-96.681 -57.871)" fill="#ffb481"/>
    <path id="Path_813" data-name="Path 813" d="M176.466,121.468a4.62,4.62,0,0,1-4.62-4.62v-7.074h9.24v7.074A4.62,4.62,0,0,1,176.466,121.468Z" transform="translate(-143.544 -57.871)" fill="#6796ee"/>
    <path id="Path_814" data-name="Path 814" d="M232.569,121.468a4.62,4.62,0,0,1-4.62-4.62v-7.074h9.24v7.074A4.62,4.62,0,0,1,232.569,121.468Z" transform="translate(-190.407 -57.871)" fill="#ffb481"/>
    <path id="Path_815" data-name="Path 815" d="M288.672,121.468a4.62,4.62,0,0,1-4.62-4.62v-7.074h9.24v7.074A4.62,4.62,0,0,1,288.672,121.468Z" transform="translate(-237.27 -57.871)" fill="#6796ee"/>
    <path id="Path_816" data-name="Path 816" d="M344.775,121.468a4.62,4.62,0,0,1-4.62-4.62v-7.074h9.24v7.074A4.62,4.62,0,0,1,344.775,121.468Z" transform="translate(-284.133 -57.871)" fill="#ffb481"/>
    <path id="Path_817" data-name="Path 817" d="M161.942,69.462V63.989a2.475,2.475,0,0,0-2.475-2.475h-41.25a2.475,2.475,0,0,0-2.475,2.475v5.473Z" transform="translate(-96.68 -17.559)" fill="#3970d6"/>
    <g id="Group_240" data-name="Group 240" transform="translate(18.238 43.132)">
      <path id="Path_818" data-name="Path 818" d="M148.9,81.394v.024a.823.823,0,1,0,1.647,0v-.024a.823.823,0,1,0-1.647,0Z" transform="translate(-142.612 -76.609)" fill="#203284"/>
      <path id="Path_819" data-name="Path 819" d="M168.255,81.394v.024a.824.824,0,0,0,1.647,0v-.024a.824.824,0,0,0-1.647,0Z" transform="translate(-158.783 -76.609)" fill="#203284"/>
      <path id="Path_820" data-name="Path 820" d="M187.615,81.394v.024a.823.823,0,0,0,1.647,0v-.024a.823.823,0,0,0-1.647,0Z" transform="translate(-174.954 -76.609)" fill="#203284"/>
      <path id="Path_821" data-name="Path 821" d="M155.292,56.515h-41.25a3.3,3.3,0,0,0-3.3,3.3v5.473a.823.823,0,0,0,.823.823.416.416,0,0,1,.168,0H153.26a.823.823,0,1,0,0-1.647H112.391v-4.65a1.653,1.653,0,0,1,1.651-1.651h41.25a1.653,1.653,0,0,1,1.651,1.651v61.752a1.653,1.653,0,0,1-1.651,1.651h-41.25a1.653,1.653,0,0,1-1.651-1.651V69.822a.823.823,0,1,0-1.647,0v51.742a3.3,3.3,0,0,0,3.3,3.3h41.25a3.3,3.3,0,0,0,3.3-3.3V59.813A3.3,3.3,0,0,0,155.292,56.515Z" transform="translate(-110.744 -56.515)" fill="#203284"/>
    </g>
    <path id="Path_822" data-name="Path 822" d="M225.332,214.7a.823.823,0,0,0-.631-.295h-9.649l-.531-1.642a.824.824,0,0,0-.784-.57h-2.359a.823.823,0,1,0,0,1.647h1.76l2,6.185H215a.823.823,0,0,0,0,1.647h8.7a.823.823,0,0,0,.811-.679l1-5.62A.824.824,0,0,0,225.332,214.7Zm-2.324,5.325h-6.139l-1.285-3.973h8.133Z" transform="translate(-175.878 -143.425)" fill="#f96e0f"/>
    <path id="Path_823" data-name="Path 823" d="M237.358,278.72a2.143,2.143,0,1,1,2.143-2.143A2.145,2.145,0,0,1,237.358,278.72Zm0-2.639a.5.5,0,1,0,.5.5A.5.5,0,0,0,237.358,276.081Z" transform="translate(-196.476 -195.411)" fill="#f96e0f"/>
    <path id="Path_824" data-name="Path 824" d="M274.694,278.72a2.143,2.143,0,1,1,2.143-2.143A2.145,2.145,0,0,1,274.694,278.72Zm0-2.639a.5.5,0,1,0,.5.5A.5.5,0,0,0,274.694,276.081Z" transform="translate(-227.663 -195.411)" fill="#f96e0f"/>
    <path id="Path_825" data-name="Path 825" d="M208.564,332.657h-22.07a.494.494,0,0,1-.494-.494v-5.848a.494.494,0,0,1,.494-.494h22.07a.494.494,0,0,1,.494.494v5.848A.494.494,0,0,1,208.564,332.657Z" transform="translate(-155.367 -238.335)" fill="#6796ee"/>
    <path id="Path_826" data-name="Path 826" d="M231.645,397.928h14.837a.845.845,0,1,0,0-1.689H231.645a.845.845,0,1,0,0,1.689Z" transform="translate(-192.789 -297.155)" fill="#3970d6"/>
    <path id="Path_827" data-name="Path 827" d="M181.7,397.928h4.053a.845.845,0,1,0,0-1.689H181.7a.845.845,0,1,0,0,1.689Z" transform="translate(-151.069 -297.155)" fill="#f96e0f"/>
    <path id="Path_828" data-name="Path 828" d="M181.7,418.272h23.063a.845.845,0,0,0,0-1.69H181.7a.845.845,0,0,0,0,1.69Z" transform="translate(-151.069 -314.149)" fill="#ddd9e4"/>
    <path id="Path_829" data-name="Path 829" d="M68.124,116.827a.82.82,0,0,1-.582-.241l-1.811-1.811a.823.823,0,0,1,0-1.164l1.811-1.811a.823.823,0,0,1,1.164,0l1.811,1.811a.823.823,0,0,1,0,1.164l-1.811,1.811A.82.82,0,0,1,68.124,116.827Zm-.646-2.634.646.646.646-.646-.646-.646Z" transform="translate(-54.705 -59.361)" fill="#ffe783"/>
    <path id="Path_830" data-name="Path 830" d="M415.124,260.221a.82.82,0,0,1-.582-.241l-1.811-1.811a.823.823,0,0,1,0-1.164l1.811-1.811a.823.823,0,0,1,1.164,0L417.517,257a.823.823,0,0,1,0,1.164l-1.811,1.811A.82.82,0,0,1,415.124,260.221Zm-.646-2.634.646.646.646-.646-.646-.646Z" transform="translate(-344.555 -179.138)" fill="#3970d6"/>
    <path id="Path_831" data-name="Path 831" d="M436.161,320.745a.82.82,0,0,1-.582-.241l-1.811-1.811a.823.823,0,0,1,0-1.164l1.811-1.811a.823.823,0,0,1,1.164,0l1.811,1.811a.823.823,0,0,1,0,1.164l-1.811,1.811A.82.82,0,0,1,436.161,320.745Zm-.646-2.634.646.646.646-.646-.646-.646Z" transform="translate(-362.127 -229.694)" fill="#f96e0f"/>
    <path id="Path_832" data-name="Path 832" d="M49.118,286.463a.823.823,0,0,1-.823-.824.988.988,0,0,0-.987-.987.823.823,0,1,1,0-1.647.988.988,0,0,0,.987-.987.823.823,0,0,1,1.647,0,.988.988,0,0,0,.987.987.823.823,0,1,1,0,1.647.988.988,0,0,0-.987.987A.823.823,0,0,1,49.118,286.463Z" transform="translate(-38.829 -201.058)" fill="#3970d6"/>
  </g>
</svg>
