<svg xmlns="http://www.w3.org/2000/svg" xmlns:xlink="http://www.w3.org/1999/xlink" width="77.426" height="69.094" viewBox="0 0 77.426 69.094">
  <defs>
    <linearGradient id="linear-gradient" x1="0.292" y1="0.5" x2="2.192" y2="0.5" gradientUnits="objectBoundingBox">
      <stop offset="0" stop-color="#fff0d5"/>
      <stop offset="0" stop-color="#ffeee2"/>
      <stop offset="0.511" stop-color="#c7daff"/>
      <stop offset="1" stop-color="#e6efff"/>
    </linearGradient>
  </defs>
  <g id="email_3_" data-name="email (3)" transform="translate(0 -27.547)">
    <path id="Path_892" data-name="Path 892" d="M70.357,48.2a20.3,20.3,0,0,1-4.418-9.18,14.109,14.109,0,0,0-3.775-7.3c-8.888-8.888-29.075-3.111-45.089,12.9s-21.791,36.2-12.9,45.088c4.225,4.225,11,5.135,18.671,3.208A20.58,20.58,0,0,1,36.2,94.133,29.346,29.346,0,0,0,70.357,48.2Z" transform="translate(0)" fill="url(#linear-gradient)"/>
    <g id="Group_261" data-name="Group 261" transform="translate(10.326 33.967)" opacity="0.1">
      <path id="Path_893" data-name="Path 893" d="M122.922,126.372,96.8,107.79a1.512,1.512,0,0,0-1.753,0L68.917,126.372a1.512,1.512,0,0,0-.636,1.232v32.606a1.512,1.512,0,0,0,1.512,1.512h52.253a1.512,1.512,0,0,0,1.512-1.512V127.6A1.513,1.513,0,0,0,122.922,126.372Z" transform="translate(-68.281 -101.838)" fill="#00c"/>
      <path id="Path_894" data-name="Path 894" d="M350.8,70h-9.814V80.957h14.583a.954.954,0,0,0,.954-.954V75.722A5.722,5.722,0,0,0,350.8,70Z" transform="translate(-299.744 -70)" fill="#00c"/>
    </g>
    <path id="Path_895" data-name="Path 895" d="M122.045,137.723H69.792a1.512,1.512,0,0,1-1.512-1.512V103.6a1.512,1.512,0,0,1,.636-1.232L95.042,83.79a1.512,1.512,0,0,1,1.753,0l26.126,18.582a1.512,1.512,0,0,1,.636,1.232V136.21A1.512,1.512,0,0,1,122.045,137.723Z" transform="translate(-57.954 -47.5)" fill="#f96e0f"/>
    <path id="Path_896" data-name="Path 896" d="M123.557,103.605,95.918,122.817,68.279,103.605a1.51,1.51,0,0,1,.637-1.232L95.041,83.791a1.513,1.513,0,0,1,1.754,0l26.125,18.582A1.511,1.511,0,0,1,123.557,103.605Z" transform="translate(-57.954 -47.5)" fill="#6796ee"/>
    <path id="Path_897" data-name="Path 897" d="M356.517,56V51.721A5.722,5.722,0,0,0,350.8,46h-9.815V56.956h14.582A.953.953,0,0,0,356.517,56Z" transform="translate(-289.417 -15.661)" fill="rgba(249,110,15,0.54)"/>
    <path id="Path_898" data-name="Path 898" d="M356.521,51.726v2.832a5.723,5.723,0,0,0-5.722-5.722h-9.814V46H350.8A5.721,5.721,0,0,1,356.521,51.726Z" transform="translate(-289.42 -15.666)" fill="rgba(249,110,15,0.19)"/>
    <path id="Path_899" data-name="Path 899" d="M178.346,45.993a5.722,5.722,0,0,0-5.722,5.722V78.528l-17.9,12.444L137.558,79.044V51.715a5.722,5.722,0,0,1,5.722-5.722Z" transform="translate(-116.756 -15.656)" fill="#fff"/>
    <path id="Path_900" data-name="Path 900" d="M199.311,120.779H169.756a.756.756,0,0,1-.756-.756V108.266a.756.756,0,0,1,.756-.756h29.555Z" transform="translate(-143.443 -67.871)" fill="#ffd6bb"/>
    <path id="Path_901" data-name="Path 901" d="M78.28,304.366l25.079-24.1a1.512,1.512,0,0,1,2.1,0l25.079,24.1Z" transform="translate(-66.442 -214.143)" fill="#ffab66"/>
    <path id="Path_902" data-name="Path 902" d="M115.384,41a.743.743,0,0,0-.085-.008H80.234a6.486,6.486,0,0,0-6.478,6.478V58.9l-9.523,6.773a2.272,2.272,0,0,0-.952,1.821c0,.008,0,.016,0,.024s0,0,0,0v32.606a2.271,2.271,0,0,0,2.268,2.268H117.8a2.271,2.271,0,0,0,2.268-2.268V67.517s0,0,0,0,0-.016,0-.024a2.271,2.271,0,0,0-.952-1.821l-8.782-6.246V47.472a4.861,4.861,0,1,1,9.721,0v4.282a.2.2,0,0,1-.2.2h-5.138a.756.756,0,1,0,0,1.512h5.138a1.712,1.712,0,0,0,1.71-1.71V47.473A6.485,6.485,0,0,0,115.384,41ZM64.791,68.965,84.325,82.542l-19.032,18.29a.755.755,0,0,1-.5-.709Zm2.634,31.915L91.15,78.08a.754.754,0,0,1,1.048,0l23.724,22.8Zm50.63-.047L99.023,82.542l19.533-13.577v31.159A.755.755,0,0,1,118.055,100.832Zm.183-33.931a.756.756,0,0,1,.237.278l-8.143,5.66V61.279Zm-9.418-19.429V73.89l-10.91,7.583L93.245,76.99a2.262,2.262,0,0,0-3.144,0l-4.665,4.483L64.872,67.179a.756.756,0,0,1,.237-.278l8.646-6.149V69.66a.756.756,0,1,0,1.512,0V47.472a4.972,4.972,0,0,1,4.966-4.966h30.91a6.468,6.468,0,0,0-2.322,4.966Z" transform="translate(-53.71 -11.413)" fill="#203284"/>
    <path id="Path_903" data-name="Path 903" d="M90.781,85.843a.754.754,0,0,1-.535-.222l-.977-.977-.978.978a.756.756,0,0,1-1.069-1.069l1.512-1.512a.756.756,0,0,1,1.069,0l1.512,1.512a.756.756,0,0,1-.535,1.291Z" transform="translate(-73.844 -46.913)" fill="#f96e0f"/>
    <path id="Path_904" data-name="Path 904" d="M466.334,215.667a.753.753,0,0,1-.535-.222l-.978-.977-.978.977a.756.756,0,1,1-1.069-1.069l1.512-1.512a.756.756,0,0,1,1.069,0l1.512,1.512a.756.756,0,0,1-.535,1.291Z" transform="translate(-392.605 -157.105)" fill="#f96e0f"/>
    <path id="Path_905" data-name="Path 905" d="M23.229,337.166a.754.754,0,0,1-.535-.222l-.977-.978-.978.978a.756.756,0,0,1-1.069-1.069l1.512-1.512a.756.756,0,0,1,1.069,0l1.512,1.512a.756.756,0,0,1-.535,1.291Z" transform="translate(-16.507 -260.23)" fill="#f96e0f"/>
    <path id="Path_906" data-name="Path 906" d="M439.475,163.551a.756.756,0,0,1-.535-1.291l1.512-1.512a.756.756,0,0,1,1.069,1.069l-1.512,1.512A.753.753,0,0,1,439.475,163.551Z" transform="translate(-372.375 -112.87)" fill="#3970d6"/>
    <path id="Path_907" data-name="Path 907" d="M69.035,138.087A.756.756,0,0,1,68.5,136.8l1.512-1.512a.756.756,0,0,1,1.069,1.069l-1.512,1.512a.754.754,0,0,1-.535.222Z" transform="translate(-57.954 -91.256)" fill="#3970d6"/>
    <g id="Group_262" data-name="Group 262" transform="translate(33.768 42.766)">
      <path id="Path_908" data-name="Path 908" d="M317.057,146.925h1.89a.756.756,0,0,0,0-1.512h-1.89a.756.756,0,0,0,0,1.512Z" transform="translate(-302.237 -142.808)" fill="#162258"/>
      <path id="Path_909" data-name="Path 909" d="M236.057,146.925h9.149a.756.756,0,1,0,0-1.512h-9.149a.756.756,0,0,0,0,1.512Z" transform="translate(-233.486 -142.808)" fill="#162258"/>
      <path id="Path_910" data-name="Path 910" d="M287.057,129.7h6.427a.756.756,0,0,0,0-1.512h-6.427a.756.756,0,0,0,0,1.512Z" transform="translate(-276.774 -128.186)" fill="#162258"/>
      <path id="Path_911" data-name="Path 911" d="M224.057,162.5h15.954a.756.756,0,1,1,0,1.512H224.057a.756.756,0,0,1,0-1.512Z" transform="translate(-223.301 -157.31)" fill="#162258"/>
    </g>
    <path id="Path_912" data-name="Path 912" d="M169.756,211.393h24.165a.756.756,0,1,1,0,1.512H169.756a.756.756,0,1,1,0-1.512Z" transform="translate(-143.443 -156.044)" fill="#3c5ae1"/>
    <path id="Path_913" data-name="Path 913" d="M169.756,230.247h24.165a.756.756,0,0,1,0,1.512H169.756a.756.756,0,1,1,0-1.512Z" transform="translate(-143.443 -172.047)" fill="#3c5ae1"/>
    <path id="Path_914" data-name="Path 914" d="M169.756,249.1h24.165a.756.756,0,0,1,0,1.512H169.756a.756.756,0,1,1,0-1.512Z" transform="translate(-143.443 -188.049)" fill="#3c5ae1"/>
    <path id="Path_917" data-name="Path 917" d="M164.96,410.722a.756.756,0,0,1-.756.756h-1.89a.756.756,0,1,1,0-1.512h1.89a.756.756,0,0,1,.756.756" transform="translate(-137.126 -324.589)" fill="#fff"/>
    <path id="Path_918" data-name="Path 918" d="M164.2,394.251h-1.89a.756.756,0,1,1,0-1.512h1.89a.756.756,0,1,1,0,1.512Z" transform="translate(-137.126 -309.967)" fill="#fff"/>
  </g>
</svg>
