<svg id="maps-and-flags_2_" data-name="maps-and-flags (2)" xmlns="http://www.w3.org/2000/svg" width="35.83" height="45.538" viewBox="0 0 35.83 45.538">
  <path id="Path_883" data-name="Path 883" d="M99.93,28.468c0,13.52-15.263,26.042-15.263,26.042a2.671,2.671,0,0,1-3.243,0S66.16,41.988,66.16,28.468a16.885,16.885,0,0,1,33.77,0Z" transform="translate(-65.13 -10.553)" fill="#f96e0f"/>
  <path id="Path_884" data-name="Path 884" d="M168.986,122.9a8.495,8.495,0,1,1,8.495-8.495A8.5,8.5,0,0,1,168.986,122.9Z" transform="translate(-151.071 -96.494)" fill="#ffe1d6"/>
  <g id="Group_259" data-name="Group 259" transform="translate(0)">
    <path id="Path_885" data-name="Path 885" d="M72.491,0A17.935,17.935,0,0,0,54.576,17.915a24.3,24.3,0,0,0,2.481,10.208,43.432,43.432,0,0,0,5.373,8.523,57.855,57.855,0,0,0,7.786,8.108,3.69,3.69,0,0,0,4.55,0,57.865,57.865,0,0,0,7.786-8.108,43.431,43.431,0,0,0,5.373-8.523,24.3,24.3,0,0,0,2.481-10.208A17.936,17.936,0,0,0,72.491,0Zm8.471,35.334a56.915,56.915,0,0,1-7.5,7.827,1.635,1.635,0,0,1-1.936,0,56.911,56.911,0,0,1-7.5-7.827c-3.368-4.262-7.383-10.743-7.383-17.419a15.855,15.855,0,0,1,31.709,0C88.346,24.59,84.331,31.072,80.963,35.334Z" transform="translate(-54.576)" fill="#162258"/>
    <path id="Path_886" data-name="Path 886" d="M158.433,94.331a9.525,9.525,0,1,0,9.525,9.525A9.536,9.536,0,0,0,158.433,94.331Zm0,16.99a7.465,7.465,0,1,1,7.465-7.465A7.473,7.473,0,0,1,158.433,111.321Z" transform="translate(-140.518 -85.941)" fill="#162258"/>
  </g>
</svg>
