<svg xmlns="http://www.w3.org/2000/svg" xmlns:xlink="http://www.w3.org/1999/xlink" width="94.203" height="82.13" viewBox="0 0 94.203 82.13">
  <defs>
    <linearGradient id="linear-gradient" x1="0.292" y1="0.5" x2="2.192" y2="0.5" gradientUnits="objectBoundingBox">
      <stop offset="0" stop-color="#fff0d5"/>
      <stop offset="0" stop-color="#ffeee2"/>
      <stop offset="0.511" stop-color="#c7daff"/>
      <stop offset="1" stop-color="#e6efff"/>
    </linearGradient>
  </defs>
  <g id="package1" transform="translate(-28.19 -4.458)">
    <path id="Path_775" data-name="Path 775" d="M50.064,76.615A25.988,25.988,0,1,1,6.594,49.529a19.722,19.722,0,0,0,4.9-13.825q-.034-1.01-.009-2.034C11.93,15.289,27.632-.011,46.019,0A34.529,34.529,0,0,1,60.286,65.962,19.935,19.935,0,0,0,50.064,76.615Z" transform="matrix(-0.017, 1, -1, -0.017, 122.393, 6.078)" fill="url(#linear-gradient)"/>
    <path id="Path_777" data-name="Path 777" d="M306.223,40.568a.906.906,0,0,1-.641-.265l-2-2a.906.906,0,0,1,0-1.282l2-2a.906.906,0,0,1,1.282,0l2,2a.906.906,0,0,1,0,1.282l-2,2A.907.907,0,0,1,306.223,40.568Zm-.715-2.9.715.715.716-.715-.716-.715Z" transform="translate(-219.45 -29.343)" fill="#ffa052"/>
    <path id="Path_778" data-name="Path 778" d="M368.936,410.252a.906.906,0,0,1-.641-.265l-2-2a.906.906,0,0,1,0-1.282l2-2a.906.906,0,0,1,1.282,0l2,2a.906.906,0,0,1,0,1.282l-2,2a.907.907,0,0,1-.641.265Zm-.715-2.9.715.716.715-.716-.715-.715Z" transform="translate(-270.795 -332.013)" fill="#f96e0f"/>
    <path id="Path_779" data-name="Path 779" d="M93.569,451.011a.906.906,0,0,1-.906-.906,1.092,1.092,0,0,0-1.091-1.091.906.906,0,0,1,0-1.813,1.092,1.092,0,0,0,1.091-1.091.906.906,0,0,1,1.813,0,1.092,1.092,0,0,0,1.091,1.091.906.906,0,0,1,0,1.813,1.092,1.092,0,0,0-1.091,1.091A.906.906,0,0,1,93.569,451.011Z" transform="translate(-45.345 -365.384)" fill="#6796ee"/>
    <g id="coin_3_" data-name="coin (3)" transform="translate(45.872 13.09)">
      <path id="Path_1164" data-name="Path 1164" d="M390.18,9.073V7.883h7.952V22.538H390.18Zm5.9,8.725a1.911,1.911,0,1,0-1.911,1.911A1.911,1.911,0,0,0,396.083,17.8Zm0,0" transform="translate(-340.499 -6.879)" fill="#f96e0f"/>
      <path id="Path_1166" data-name="Path 1166" d="M115.018,16.722l-7.288,3.692a3.416,3.416,0,0,1-4.549-1.245L117.922,9.047a10.328,10.328,0,0,1,6.42-.906l10.432,2.62a3.829,3.829,0,0,0,2.834-.39l2.132-1.218V19.72h-.085a10.136,10.136,0,0,1-10.506,1.027l-.628-.3a7.236,7.236,0,0,0-3.151-.722h-6.09a4.529,4.529,0,0,1-4.263-3Zm0,0" transform="translate(-90.06 -6.96)" fill="#f7caa5"/>
      <path id="Path_1167" data-name="Path 1167" d="M74.923,391.645l7.288-3.692A3.416,3.416,0,0,1,86.76,389.2L72.018,399.321a10.328,10.328,0,0,1-6.42.906l-10.432-2.621a3.829,3.829,0,0,0-2.834.39L50.2,399.214V388.648h.086a10.135,10.135,0,0,1,10.506-1.027l.628.3a7.24,7.24,0,0,0,3.152.722h6.09a4.53,4.53,0,0,1,4.263,3Zm0,0" transform="translate(-43.828 -337.359)" fill="#f7caa5"/>
      <path id="Path_1168" data-name="Path 1168" d="M125.147,140.091A16.247,16.247,0,1,1,108.9,123.844,16.247,16.247,0,0,1,125.147,140.091Zm0,0" transform="translate(-80.873 -108.067)" fill="#6796ee"/>
      <path id="Path_1169" data-name="Path 1169" d="M13.185,393.309v1.19h-5.4V379.844h5.4Zm0,0" transform="translate(-6.814 -331.455)" fill="#f96e0f"/>
      <g id="Group_372" data-name="Group 372" transform="translate(0 0)">
        <path id="Path_1170" data-name="Path 1170" d="M38.1,373.759l-6.355,3.205a5.575,5.575,0,0,0-4.724-2.654h-6.09a6.243,6.243,0,0,1-2.707-.606l-.63-.3a11.1,11.1,0,0,0-10.016.16v-1.108a1.07,1.07,0,0,0-1.018-1.078h-5.4a1.028,1.028,0,0,0-.967,1.078v14.656a1.033,1.033,0,0,0,.967,1.083h5.4a1.075,1.075,0,0,0,1.018-1.083v-.6l1.62-.925a2.8,2.8,0,0,1,2.08-.286l10.433,2.62c.022.006.044.01.067.014a11.23,11.23,0,0,0,2,.179,11.427,11.427,0,0,0,5.05-1.174,1.013,1.013,0,0,0,.125-.073L43.7,376.747a1.019,1.019,0,0,0,.3-1.366,4.428,4.428,0,0,0-5.893-1.622Zm-32.562,12.4H2.23V373.418H5.542Zm22.324-1.01a9.381,9.381,0,0,1-5.691.791l-10.4-2.612a4.828,4.828,0,0,0-3.588.493l-.609.347v-8.226a9.074,9.074,0,0,1,9.128-.694l.629.291a8.294,8.294,0,0,0,3.6.81h6.09a3.543,3.543,0,0,1,3.3,2.353.568.568,0,0,1,.055.2H21.541a1.019,1.019,0,0,0,0,2.038h10.01a1.032,1.032,0,0,0,1.019-1.035,5.663,5.663,0,0,0-.089-1l6.554-3.324a.221.221,0,0,0,.023-.014,2.393,2.393,0,0,1,2.537.16Zm0,0" transform="translate(-0.191 -324.069)" fill="#203284"/>
        <path id="Path_1171" data-name="Path 1171" d="M140.712.048H132.76A.965.965,0,0,0,131.743,1v.6l-1.62.926a2.8,2.8,0,0,1-2.081.286L117.61.192l-.067-.014a11.428,11.428,0,0,0-7.054,1,.92.92,0,0,0-.124.074L95.622,11.369a1.019,1.019,0,0,0-.3,1.365,4.428,4.428,0,0,0,5.894,1.623l6.355-3.205a5.578,5.578,0,0,0,4.724,2.654h6.09a6.242,6.242,0,0,1,2.707.606l.629.3a11.163,11.163,0,0,0,4.864,1.115,11.25,11.25,0,0,0,5.153-1.274v1.107a1.07,1.07,0,0,0,1.018,1.078h7.952a1.028,1.028,0,0,0,.967-1.078V1a.923.923,0,0,0-.967-.955Zm-18.1,12.821-.629-.291a8.287,8.287,0,0,0-3.6-.81H112.3A3.544,3.544,0,0,1,109,9.416a.58.58,0,0,1-.055-.2h8.841a1.019,1.019,0,1,0,0-2.038h-10.01a1.032,1.032,0,0,0-1.019,1.035,5.622,5.622,0,0,0,.09,1l-6.554,3.324-.023.014a2.394,2.394,0,0,1-2.537-.16l13.728-9.427a9.375,9.375,0,0,1,5.691-.791l10.4,2.612a4.826,4.826,0,0,0,3.589-.493l.609-.347v8.226a9.075,9.075,0,0,1-9.128.694ZM139.641,14.7h-5.86V2.087h5.86Zm0,0" transform="translate(-83.079 0.001)" fill="#203284"/>
        <path id="Path_1172" data-name="Path 1172" d="M401.45,68.571a2.93,2.93,0,1,0-2.93-2.93A2.93,2.93,0,0,0,401.45,68.571Zm0-3.822a.892.892,0,1,1-.892.892A.892.892,0,0,1,401.45,64.749Zm0,0" transform="translate(-347.776 -54.722)" fill="#203284"/>
        <path id="Path_1173" data-name="Path 1173" d="M101.919,115.844a17.267,17.267,0,1,0,17.267,17.267,17.285,17.285,0,0,0-17.267-17.267Zm0,32.495a15.228,15.228,0,1,1,15.228-15.228,15.228,15.228,0,0,1-15.228,15.228Zm0,0" transform="translate(-73.892 -101.086)" fill="#203284"/>
        <path id="Path_1174" data-name="Path 1174" d="M184.387,167.735a3.192,3.192,0,0,1,3.189,3.188,1.019,1.019,0,1,0,2.038,0,5.235,5.235,0,0,0-4.335-5.149V164.4a1.019,1.019,0,0,0-2.038,0v1.423a5.226,5.226,0,0,0,1.147,10.325,3.189,3.189,0,1,1-3.189,3.189,1.019,1.019,0,0,0-2.038,0,5.235,5.235,0,0,0,4.081,5.1v1.621a1.019,1.019,0,0,0,2.038,0v-1.571a5.227,5.227,0,0,0-.892-10.376,3.189,3.189,0,1,1,0-6.377Zm0,0" transform="translate(-156.361 -142.569)" fill="#203284"/>
      </g>
    </g>
  </g>
</svg>
