<svg xmlns="http://www.w3.org/2000/svg" xmlns:xlink="http://www.w3.org/1999/xlink" width="94.203" height="82.13" viewBox="0 0 94.203 82.13">
  <defs>
    <linearGradient id="linear-gradient" x1="0.292" y1="0.5" x2="2.192" y2="0.5" gradientUnits="objectBoundingBox">
      <stop offset="0" stop-color="#fff0d5"/>
      <stop offset="0" stop-color="#ffeee2"/>
      <stop offset="0.511" stop-color="#c7daff"/>
      <stop offset="1" stop-color="#e6efff"/>
    </linearGradient>
  </defs>
  <g id="package2" transform="translate(-28.19 -4.458)">
    <path id="Path_775" data-name="Path 775" d="M50.064,76.615A25.988,25.988,0,1,1,6.594,49.529a19.722,19.722,0,0,0,4.9-13.825q-.034-1.01-.009-2.034C11.93,15.289,27.632-.011,46.019,0A34.529,34.529,0,0,1,60.286,65.962,19.935,19.935,0,0,0,50.064,76.615Z" transform="matrix(-0.017, 1, -1, -0.017, 122.393, 6.078)" fill="url(#linear-gradient)"/>
    <path id="Path_777" data-name="Path 777" d="M306.223,40.568a.906.906,0,0,1-.641-.265l-2-2a.906.906,0,0,1,0-1.282l2-2a.906.906,0,0,1,1.282,0l2,2a.906.906,0,0,1,0,1.282l-2,2A.907.907,0,0,1,306.223,40.568Zm-.715-2.9.715.715.716-.715-.716-.715Z" transform="translate(-219.45 -29.343)" fill="#ffa052"/>
    <path id="Path_778" data-name="Path 778" d="M368.936,410.252a.906.906,0,0,1-.641-.265l-2-2a.906.906,0,0,1,0-1.282l2-2a.906.906,0,0,1,1.282,0l2,2a.906.906,0,0,1,0,1.282l-2,2a.907.907,0,0,1-.641.265Zm-.715-2.9.715.716.715-.716-.715-.715Z" transform="translate(-267.795 -325.013)" fill="#f96e0f"/>
    <path id="Path_779" data-name="Path 779" d="M93.569,451.011a.906.906,0,0,1-.906-.906,1.092,1.092,0,0,0-1.091-1.091.906.906,0,0,1,0-1.813,1.092,1.092,0,0,0,1.091-1.091.906.906,0,0,1,1.813,0,1.092,1.092,0,0,0,1.091,1.091.906.906,0,0,1,0,1.813,1.092,1.092,0,0,0-1.091,1.091A.906.906,0,0,1,93.569,451.011Z" transform="translate(-45.345 -365.384)" fill="#6796ee"/>
    <g id="quality" transform="translate(4.572 15.228)">
      <path id="Path_1175" data-name="Path 1175" d="M153.078,268.937l-10.658,25.731-2.547-4.625,7.056-25.572Z" transform="translate(-84.305 -231.106)" fill="#3566c1"/>
      <path id="Path_1176" data-name="Path 1176" d="M63.718,226.413,51.571,255.742l9.11-2.64,2.03,3.685,9.81-23.686Z" transform="translate(-7.142 -197.85)" fill="#3970d6"/>
      <path id="Path_1177" data-name="Path 1177" d="M267.46,268.937l10.658,25.731,2.547-4.625-7.056-25.572Z" transform="translate(-195.795 -231.106)" fill="#3061bb"/>
      <path id="Path_1178" data-name="Path 1178" d="M303.17,226.413l-8.8,6.687,9.81,23.686,2.03-3.685,9.11,2.64Z" transform="translate(-219.309 -197.85)" fill="#3970d6"/>
      <path id="Path_1179" data-name="Path 1179" d="M208.4,8.17l-6.871,19.737L208.4,47.645a19.737,19.737,0,1,0,0-39.475Z" transform="translate(-138.185 -7.139)" fill="#6796ee"/>
      <path id="Path_1180" data-name="Path 1180" d="M99.547,27.907a19.737,19.737,0,0,0,19.737,19.737V8.17A19.737,19.737,0,0,0,99.547,27.907Z" transform="translate(-49.066 -7.139)" fill="#6796ee"/>
      <path id="Path_1181" data-name="Path 1181" d="M256,40.851v31.23a15.615,15.615,0,0,0,0-31.23Z" transform="translate(-185.781 -35.697)" fill="#ffdb8a"/>
      <path id="Path_1182" data-name="Path 1182" d="M147.842,40.851a15.615,15.615,0,0,0,0,31.23c7.094,0,12.866-7,12.866-15.615S154.936,40.851,147.842,40.851Z" transform="translate(-77.623 -35.697)" fill="#fbb382"/>
      <path id="Path_1183" data-name="Path 1183" d="M180.3,73.532l3.487,6.692,7.442,1.249-5.286,5.385,1.112,7.463L180.3,90.957l-6.755,3.364,1.112-7.463-5.286-5.385,7.442-1.249Z" transform="translate(-110.078 -64.256)" fill="#f96e0f"/>
      <path id="Path_1184" data-name="Path 1184" d="M96.961,57.5,88.41,36.853a1.031,1.031,0,1,0-1.9.789L94.236,56.3l-7.051-2.043a1.031,1.031,0,0,0-1.19.493l-3.541,6.431L74.159,41.16a20.784,20.784,0,1,0-20.6-8L43.476,57.5a1.031,1.031,0,0,0,1.239,1.384l8.319-2.411,4.178,7.587a1.031,1.031,0,0,0,.9.534l.057,0a1.031,1.031,0,0,0,.9-.635l7.99-19.288a1.031,1.031,0,1,0-1.9-.789L57.984,61.185l-3.541-6.431a1.031,1.031,0,0,0-1.19-.493L46.2,56.305l8.85-21.366a20.713,20.713,0,0,0,15.167,6.6c.617,0,1.228-.029,1.831-.082l9.32,22.5a1.031,1.031,0,0,0,.9.635l.057,0a1.031,1.031,0,0,0,.9-.534L87.4,56.472l8.319,2.411A1.031,1.031,0,0,0,96.961,57.5ZM51.512,20.768A18.707,18.707,0,1,1,70.219,39.475,18.728,18.728,0,0,1,51.512,20.768Z" fill="#203284"/>
      <path id="Path_1185" data-name="Path 1185" d="M185.066,74.015a1.03,1.03,0,0,0-.81-.7l-6.936-1.164-3.25-6.236a1.031,1.031,0,0,0-1.828,0l-3.25,6.236-6.936,1.164a1.031,1.031,0,0,0-.565,1.739l4.927,5.018-1.036,6.956a1.031,1.031,0,0,0,1.479,1.075l6.3-3.135,6.3,3.135a1.031,1.031,0,0,0,1.479-1.074l-1.036-6.956,4.927-5.018A1.031,1.031,0,0,0,185.066,74.015Zm-7,4.981a1.03,1.03,0,0,0-.284.874l.82,5.507-4.984-2.482a1.03,1.03,0,0,0-.919,0l-4.984,2.482.82-5.507a1.03,1.03,0,0,0-.284-.874l-3.9-3.973,5.491-.922a1.031,1.031,0,0,0,.743-.54l2.574-4.938,2.573,4.938a1.031,1.031,0,0,0,.743.54l5.491.922Z" transform="translate(-102.938 -57.116)" fill="#203284"/>
      <path id="Path_1186" data-name="Path 1186" d="M156.317,50.366a1.03,1.03,0,0,0-1.157.886,14.584,14.584,0,1,1,0-3.852,1.031,1.031,0,1,0,2.043-.271,16.644,16.644,0,1,0,0,4.394A1.031,1.031,0,0,0,156.317,50.366Z" transform="translate(-70.484 -28.558)" fill="#203284"/>
    </g>
  </g>
</svg>
