<svg xmlns="http://www.w3.org/2000/svg" xmlns:xlink="http://www.w3.org/1999/xlink" width="94.203" height="82.13" viewBox="0 0 94.203 82.13">
  <defs>
    <linearGradient id="linear-gradient" x1="0.292" y1="0.5" x2="2.192" y2="0.5" gradientUnits="objectBoundingBox">
      <stop offset="0" stop-color="#fff0d5"/>
      <stop offset="0" stop-color="#ffeee2"/>
      <stop offset="0.511" stop-color="#c7daff"/>
      <stop offset="1" stop-color="#e6efff"/>
    </linearGradient>
  </defs>
  <g id="package3" transform="translate(-28.19 -4.458)">
    <path id="Path_775" data-name="Path 775" d="M50.064,76.615A25.988,25.988,0,1,1,6.594,49.529a19.722,19.722,0,0,0,4.9-13.825q-.034-1.01-.009-2.034C11.93,15.289,27.632-.011,46.019,0A34.529,34.529,0,0,1,60.286,65.962,19.935,19.935,0,0,0,50.064,76.615Z" transform="matrix(-0.017, 1, -1, -0.017, 122.393, 6.078)" fill="url(#linear-gradient)"/>
    <path id="Path_777" data-name="Path 777" d="M306.223,40.568a.906.906,0,0,1-.641-.265l-2-2a.906.906,0,0,1,0-1.282l2-2a.906.906,0,0,1,1.282,0l2,2a.906.906,0,0,1,0,1.282l-2,2A.907.907,0,0,1,306.223,40.568Zm-.715-2.9.715.715.716-.715-.716-.715Z" transform="translate(-219.45 -29.343)" fill="#ffa052"/>
    <path id="Path_778" data-name="Path 778" d="M368.936,410.252a.906.906,0,0,1-.641-.265l-2-2a.906.906,0,0,1,0-1.282l2-2a.906.906,0,0,1,1.282,0l2,2a.906.906,0,0,1,0,1.282l-2,2a.907.907,0,0,1-.641.265Zm-.715-2.9.715.716.715-.716-.715-.715Z" transform="translate(-270.795 -332.013)" fill="#f96e0f"/>
    <path id="Path_779" data-name="Path 779" d="M93.569,451.011a.906.906,0,0,1-.906-.906,1.092,1.092,0,0,0-1.091-1.091.906.906,0,0,1,0-1.813,1.092,1.092,0,0,0,1.091-1.091.906.906,0,0,1,1.813,0,1.092,1.092,0,0,0,1.091,1.091.906.906,0,0,1,0,1.813,1.092,1.092,0,0,0-1.091,1.091A.906.906,0,0,1,93.569,451.011Z" transform="translate(-45.345 -365.384)" fill="#6796ee"/>
    <g id="targeting" transform="translate(42.473 12.804)">
      <path id="Path_1187" data-name="Path 1187" d="M215.427,89.318v52.975a26.488,26.488,0,1,0,0-52.975Z" transform="translate(-187.895 -77.902)" fill="#3463bb"/>
      <path id="Path_1188" data-name="Path 1188" d="M34.658,89.318a26.488,26.488,0,1,0,0,52.975c12.332,0,22.311-11.847,22.311-26.488S46.99,89.318,34.658,89.318Z" transform="translate(-7.126 -77.902)" fill="#3970d6"/>
      <path id="Path_1190" data-name="Path 1190" d="M94.914,158.4a17.658,17.658,0,1,0,0,35.317c7.837,0,14.178-7.9,14.178-17.658S102.751,158.4,94.914,158.4Z" transform="translate(-67.383 -138.158)" fill="#76a0ef"/>
      <path id="Path_1192" data-name="Path 1192" d="M155.171,227.488a8.829,8.829,0,0,0,0,17.658c3.341,0,6.045-3.949,6.045-8.829S158.512,227.488,155.171,227.488Z" transform="translate(-127.639 -198.413)" fill="#f96e0f"/>
      <path id="Path_1193" data-name="Path 1193" d="M405.815,8.171l-1.076,6.983-6.513,6.513,1.076-6.983Z" transform="translate(-347.332 -7.125)" fill="#6796ee"/>
      <path id="Path_1194" data-name="Path 1194" d="M411.666,54.393l-6.521,6.521-6.983,1.076,6.521-6.521Z" transform="translate(-347.276 -47.44)" fill="#6796ee"/>
      <path id="Path_1195" data-name="Path 1195" d="M65.321,6.48a1.044,1.044,0,0,0-1.09-.56l-5.575.859L59.515,1.2a1.044,1.044,0,0,0-1.77-.9L51.273,6.779a1.043,1.043,0,0,0-.293.579L49.956,14l-3.7,3.7a27.472,27.472,0,1,0,3.58,4.035,1.044,1.044,0,1,0-1.69,1.226,25.462,25.462,0,1,1-3.368-3.784L40,23.959a18.665,18.665,0,1,0,3.513,4.218,1.044,1.044,0,1,0-1.783,1.087,16.614,16.614,0,1,1-3.208-3.826l-4.784,4.784a9.849,9.849,0,1,0,3.251,4.832,1.044,1.044,0,1,0-2,.6,7.787,7.787,0,1,1-7.456-5.537,7.728,7.728,0,0,1,4.718,1.591l-5.456,5.456a1.044,1.044,0,0,0,1.477,1.477L47,19.912l0,0,0,0,4.425-4.425,6.645-1.025a1.045,1.045,0,0,0,.579-.293l6.472-6.472A1.044,1.044,0,0,0,65.321,6.48ZM52.991,8.014l3.974-3.973-.538,3.492-3.974,3.973Zm4.43,4.43-3.491.538L57.9,9.009,61.4,8.47Z" transform="translate(0 0)" fill="#203284"/>
    </g>
  </g>
</svg>
