<svg xmlns="http://www.w3.org/2000/svg" xmlns:xlink="http://www.w3.org/1999/xlink" width="88" height="79.974" viewBox="0 0 88 79.974">
  <defs>
    <linearGradient id="linear-gradient" x1="0.292" y1="0.5" x2="2.192" y2="0.5" gradientUnits="objectBoundingBox">
      <stop offset="0" stop-color="#fff0d5"/>
      <stop offset="0.001" stop-color="#ffeee2"/>
      <stop offset="0.511" stop-color="#c7daff"/>
      <stop offset="1" stop-color="#e6efff"/>
    </linearGradient>
  </defs>
  <g id="video" transform="translate(-24.102 -5.137)">
    <path id="Path_1221" data-name="Path 1221" d="M70.163,62.11a18.612,18.612,0,0,1-9.618-8.315,20.821,20.821,0,0,0-36.9.743,19.181,19.181,0,0,1-9.984,9.24C7.24,66.368,1.851,72.289.141,81.546a8.472,8.472,0,0,0,0,3.076c2.655,14.364,14.162,20.7,24.635,19.02a19.29,19.29,0,0,1,16.15,5.064c8.84,8.231,23.011,10.812,36.768,1.989a19,19,0,0,0,4.807-4.815C94.352,87.373,85.572,68.116,70.163,62.11Z" transform="translate(24.104 -31.097)" fill="url(#linear-gradient)"/>
    <path id="Path_1198" data-name="Path 1198" d="M124.62,111.948v48.763a2.574,2.574,0,0,1-2.573,2.573H58.573A2.574,2.574,0,0,1,56,160.711V111.948a2.574,2.574,0,0,1,2.573-2.573h63.474A2.574,2.574,0,0,1,124.62,111.948Z" transform="translate(-18.31 -90.611)" fill="#f5f4f9"/>
    <path id="Path_1199" data-name="Path 1199" d="M149.771,398.668H94.287v-4.653a.515.515,0,0,1,.515-.515h54.454a.515.515,0,0,1,.515.515v4.653Z" transform="translate(-50.029 -325.995)" fill="rgba(103,150,238,0.56)"/>
    <path id="Path_1200" data-name="Path 1200" d="M94.287,157.545h55.484v3.624a.515.515,0,0,1-.515.515H94.8a.515.515,0,0,1-.515-.515Z" transform="translate(-50.029 -130.518)" fill="#e8e6ed"/>
    <path id="Path_1201" data-name="Path 1201" d="M124.62,117.638v-5.691a2.573,2.573,0,0,0-2.573-2.573H58.573A2.573,2.573,0,0,0,56,111.947v5.691Z" transform="translate(-18.31 -90.611)" fill="#3970d6"/>
    <g id="Group_385" data-name="Group 385" transform="translate(36.832 17.906)">
      <path id="Path_1202" data-name="Path 1202" d="M89.94,130.127a.858.858,0,0,1-.858-.858v-.025a.858.858,0,0,1,1.716,0v.025A.858.858,0,0,1,89.94,130.127Z" transform="translate(-82.549 -124.268)" fill="#203284"/>
      <path id="Path_1203" data-name="Path 1203" d="M109.265,130.127a.858.858,0,0,1-.858-.858v-.025a.858.858,0,0,1,1.715,0v.025A.858.858,0,0,1,109.265,130.127Z" transform="translate(-98.559 -124.268)" fill="#203284"/>
      <path id="Path_1204" data-name="Path 1204" d="M128.589,130.127a.858.858,0,0,1-.858-.858v-.025a.858.858,0,0,1,1.716,0v.025A.858.858,0,0,1,128.589,130.127Z" transform="translate(-114.568 -124.268)" fill="#203284"/>
      <path id="Path_1205" data-name="Path 1205" d="M117.9,104.374H54.431A3.435,3.435,0,0,0,51,107.805v5.7a.858.858,0,0,0,.858.858.815.815,0,0,0,.09-.009h68.53a.858.858,0,0,0,.858-.858v-5.69A3.435,3.435,0,0,0,117.9,104.374ZM54.431,106.09H117.9a1.717,1.717,0,0,1,1.715,1.716v4.833h-66.9v-4.833A1.717,1.717,0,0,1,54.431,106.09Z" transform="translate(-51 -104.374)" fill="#203284"/>
      <path id="Path_1206" data-name="Path 1206" d="M120.478,180.042a.858.858,0,0,0-.858.858v38.348a1.717,1.717,0,0,1-1.715,1.716H54.431a1.717,1.717,0,0,1-1.716-1.716V180.891a.858.858,0,0,0-1.716,0v38.357a3.435,3.435,0,0,0,3.431,3.431H117.9a3.435,3.435,0,0,0,3.431-3.431V180.9a.858.858,0,0,0-.858-.858Z" transform="translate(-51 -167.054)" fill="#203284"/>
    </g>
    <path id="Path_1207" data-name="Path 1207" d="M114.816,214.145H94.8a.515.515,0,0,1-.515-.515V199.71a.515.515,0,0,1,.515-.515h20.014a.515.515,0,0,1,.515.515v13.921A.515.515,0,0,1,114.816,214.145Z" transform="translate(-50.029 -165.023)" fill="#ffac72"/>
    <path id="Path_1208" data-name="Path 1208" d="M141.122,226.918V231.5a.515.515,0,0,0,.773.445l3.945-2.292a.515.515,0,0,0,0-.89l-3.945-2.292A.515.515,0,0,0,141.122,226.918Z" transform="translate(-88.829 -187.563)" fill="#f5f4f9"/>
    <path id="Path_1209" data-name="Path 1209" d="M119.019,347.473H95.147a.859.859,0,1,1,0-1.718h23.872a.859.859,0,1,1,0,1.718Z" transform="translate(-50.029 -286.44)" fill="#ddd9e4"/>
    <path id="Path_1210" data-name="Path 1210" d="M177.7,310.489h-11.72a.859.859,0,1,1,0-1.718H177.7a.859.859,0,1,1,0,1.718Z" transform="translate(-108.712 -255.801)" fill="#3970d6"/>
    <path id="Path_1211" data-name="Path 1211" d="M119.019,367.339H95.147a.859.859,0,0,1,0-1.718h23.872a.859.859,0,0,1,0,1.718Z" transform="translate(-50.029 -302.898)" fill="#ddd9e4"/>
    <path id="Path_1212" data-name="Path 1212" d="M270.418,237.687h-28.6a.859.859,0,1,1,0-1.718h28.6a.859.859,0,1,1,0,1.718Z" transform="translate(-171.535 -195.488)" fill="#ddd9e4"/>
    <path id="Path_1213" data-name="Path 1213" d="M260.125,200.913H241.813a.859.859,0,1,1,0-1.718h18.312a.859.859,0,1,1,0,1.718Z" transform="translate(-171.535 -165.023)" fill="#f96e0f"/>
    <path id="Path_1214" data-name="Path 1214" d="M270.418,257.553h-28.6a.859.859,0,1,1,0-1.718h28.6a.859.859,0,1,1,0,1.718Z" transform="translate(-171.535 -211.946)" fill="#ddd9e4"/>
    <path id="Path_1215" data-name="Path 1215" d="M270.418,277.837h-28.6a.859.859,0,1,1,0-1.718h28.6a.859.859,0,1,1,0,1.718Z" transform="translate(-171.535 -228.75)" fill="#ddd9e4"/>
    <path id="Path_1216" data-name="Path 1216" d="M289.023,320.242H263.511a.515.515,0,0,1-.515-.515V309.286a.515.515,0,0,1,.515-.515h25.512a.515.515,0,0,1,.515.515v10.442A.515.515,0,0,1,289.023,320.242Z" transform="translate(-189.796 -255.801)" fill="#6796ee"/>
    <circle id="Ellipse_59" data-name="Ellipse 59" cx="0.959" cy="0.959" r="0.959" transform="translate(88.413 57.746)" fill="#fff"/>
    <circle id="Ellipse_60" data-name="Ellipse 60" cx="0.959" cy="0.959" r="0.959" transform="translate(85.512 57.746)" fill="#fff"/>
    <circle id="Ellipse_61" data-name="Ellipse 61" cx="0.959" cy="0.959" r="0.959" transform="translate(82.611 57.746)" fill="#fff"/>
    <path id="Path_1217" data-name="Path 1217" d="M93.418,448.6a.858.858,0,0,1-.606-.251l-1.89-1.89a.858.858,0,0,1,0-1.213l1.89-1.89a.858.858,0,0,1,1.213,0l1.89,1.89a.858.858,0,0,1,0,1.213l-1.89,1.89A.858.858,0,0,1,93.418,448.6Zm-.677-2.748.677.677.677-.677-.677-.677Z" transform="translate(-47.032 -367.092)" fill="#3970d6"/>
    <path id="Path_1218" data-name="Path 1218" d="M275.712,35.442a.858.858,0,0,1-.606-.251l-1.89-1.89a.858.858,0,0,1,0-1.213l1.89-1.89a.858.858,0,0,1,1.213,0l1.89,1.89a.858.858,0,0,1,0,1.213l-1.89,1.89A.858.858,0,0,1,275.712,35.442Zm-.677-2.748.677.677.677-.677-.677-.677Z" transform="translate(-198.053 -24.809)" fill="#3970d6"/>
    <path id="Path_1219" data-name="Path 1219" d="M404.442,455.514a.855.855,0,0,1-.606-.251l-1.89-1.89a.858.858,0,0,1,0-1.213l1.89-1.89a.858.858,0,0,1,1.213,0l1.89,1.89a.858.858,0,0,1,0,1.213l-1.89,1.89A.855.855,0,0,1,404.442,455.514Zm-.677-2.748.677.677.677-.677-.677-.677Z" transform="translate(-304.7 -372.817)" fill="#f96e0f"/>
    <path id="Path_1220" data-name="Path 1220" d="M327.083,46.46a.858.858,0,0,1-.858-.858,1.034,1.034,0,0,0-1.033-1.032.858.858,0,1,1,0-1.716,1.034,1.034,0,0,0,1.033-1.032.858.858,0,1,1,1.715,0,1.034,1.034,0,0,0,1.032,1.032.858.858,0,1,1,0,1.716,1.034,1.034,0,0,0-1.032,1.032A.858.858,0,0,1,327.083,46.46Z" transform="translate(-240.612 -33.936)" fill="#f96e0f"/>
  </g>
</svg>
