<svg xmlns="http://www.w3.org/2000/svg" xmlns:xlink="http://www.w3.org/1999/xlink" width="67.203" height="77.46" viewBox="0 0 67.203 77.46">
  <defs>
    <linearGradient id="linear-gradient" x1="0.292" y1="0.5" x2="2.192" y2="0.5" gradientUnits="objectBoundingBox">
      <stop offset="0" stop-color="#fff0d5"/>
      <stop offset="0" stop-color="#ffeee2"/>
      <stop offset="0.511" stop-color="#c7daff"/>
      <stop offset="1" stop-color="#e6efff"/>
    </linearGradient>
  </defs>
  <g id="web-development" transform="translate(-33.899 0)">
    <path id="Path_775" data-name="Path 775" d="M75.681,13.518A21.69,21.69,0,1,0,39.4,36.124,16.46,16.46,0,0,1,43.49,47.662q-.028.843-.008,1.7a29.21,29.21,0,0,0,28.823,28.1A28.818,28.818,0,0,0,84.212,22.409,16.638,16.638,0,0,1,75.681,13.518Z" transform="translate(0 0)" fill="url(#linear-gradient)"/>
    <path id="Path_776" data-name="Path 776" d="M116.516,75.586v38.465a2.27,2.27,0,0,1-2.269,2.269H58.269A2.27,2.27,0,0,1,56,114.052V75.586a2.27,2.27,0,0,1,2.269-2.269h55.977A2.27,2.27,0,0,1,116.516,75.586Z" transform="translate(-18.758 -62.225)" fill="#590bb2" opacity="0.1"/>
    <path id="Path_777" data-name="Path 777" d="M305.743,39.608a.756.756,0,0,1-.535-.221l-1.667-1.667a.756.756,0,0,1,0-1.07l1.667-1.667a.756.756,0,0,1,1.07,0l1.667,1.667a.756.756,0,0,1,0,1.07l-1.667,1.667A.757.757,0,0,1,305.743,39.608Zm-.6-2.423.6.6.6-.6-.6-.6Z" transform="translate(-228.66 -29.502)" fill="#ffa052"/>
    <path id="Path_778" data-name="Path 778" d="M368.456,409.292a.756.756,0,0,1-.535-.221l-1.667-1.667a.756.756,0,0,1,0-1.07l1.667-1.667a.756.756,0,0,1,1.07,0l1.667,1.667a.757.757,0,0,1,0,1.07l-1.667,1.667a.757.757,0,0,1-.535.221Zm-.6-2.423.6.6.6-.6-.6-.6Z" transform="translate(-281.885 -343.257)" fill="#f96e0f"/>
    <path id="Path_779" data-name="Path 779" d="M93.089,450.051a.756.756,0,0,1-.756-.756.912.912,0,0,0-.911-.91.756.756,0,0,1,0-1.513.912.912,0,0,0,.911-.91.756.756,0,0,1,1.513,0,.911.911,0,0,0,.91.91.756.756,0,1,1,0,1.513.912.912,0,0,0-.91.91A.757.757,0,0,1,93.089,450.051Z" transform="translate(-48.178 -377.849)" fill="#6796ee"/>
    <path id="Path_780" data-name="Path 780" d="M136.421,403.653a.756.756,0,0,1-.756-.756.911.911,0,0,0-.91-.91.756.756,0,1,1,0-1.513.912.912,0,0,0,.91-.91.756.756,0,1,1,1.513,0,.912.912,0,0,0,.911.91.756.756,0,0,1,0,1.513.912.912,0,0,0-.911.91A.756.756,0,0,1,136.421,403.653Z" transform="translate(-84.955 -338.471)" fill="#f96e0f"/>
    <path id="Path_781" data-name="Path 781" d="M216.448,374.971H199.289l2.236-8.866,1.2-4.736h10.3l1.2,4.736Z" transform="translate(-140.369 -306.699)" fill="#6796ee"/>
    <path id="Path_782" data-name="Path 782" d="M226.758,366.105H214.071l1.2-4.736h10.3Z" transform="translate(-152.914 -306.699)" fill="#2f5db4"/>
    <path id="Path_783" data-name="Path 783" d="M212.2,387.25h-17.16a.756.756,0,0,1-.733-.941l2.7-10.7a.756.756,0,1,1,1.467.37l-2.463,9.761h15.218l-2.485-9.848a.756.756,0,1,1,1.467-.37l2.723,10.79a.756.756,0,0,1-.733.941Z" transform="translate(-136.123 -318.222)" fill="#203284"/>
    <path id="Path_784" data-name="Path 784" d="M116.516,96.586v38.465a2.27,2.27,0,0,1-2.269,2.269H58.269A2.27,2.27,0,0,1,56,135.052V96.586a2.27,2.27,0,0,1,2.269-2.269h55.977A2.27,2.27,0,0,1,116.516,96.586Z" transform="translate(-18.758 -80.048)" fill="#f5f4f9"/>
    <path id="Path_785" data-name="Path 785" d="M368.011,94.317H355v43h13.011a2.27,2.27,0,0,0,2.269-2.269V96.586A2.27,2.27,0,0,0,368.011,94.317Z" transform="translate(-272.522 -80.048)" fill="rgba(249,110,15,0.3)"/>
    <path id="Path_786" data-name="Path 786" d="M309.005,164.948l-1.088-3.82a.758.758,0,0,0-.728-.551H303.5a.758.758,0,0,0-.728.551l-1.088,3.82a15.2,15.2,0,0,0-4.268,1.767l-3.471-1.932a.756.756,0,0,0-.9.126l-2.61,2.611a.758.758,0,0,0-.127.9l1.933,3.471a15.216,15.216,0,0,0-1.769,4.266l-3.82,1.089a.755.755,0,0,0-.549.728v3.691a.758.758,0,0,0,.549.728l3.82,1.088a15.15,15.15,0,0,0,1.08,3h11.023a7.212,7.212,0,1,1,9.232-9.869V165.931A15.223,15.223,0,0,0,309.005,164.948Z" transform="translate(-214.046 -136.283)" fill="#ffa052"/>
    <path id="Path_787" data-name="Path 787" d="M309.005,164.948l-1.088-3.82a.758.758,0,0,0-.728-.551H303.5a.758.758,0,0,0-.728.551l-1.088,3.82a15.2,15.2,0,0,0-4.268,1.767l-3.471-1.932a.756.756,0,0,0-.9.126l-2.61,2.611a.758.758,0,0,0-.127.9l1.933,3.471a15.216,15.216,0,0,0-1.769,4.266l-3.82,1.089a.755.755,0,0,0-.549.728v3.691a.758.758,0,0,0,.549.728l3.82,1.088a15.15,15.15,0,0,0,1.08,3h11.023a7.212,7.212,0,1,1,9.232-9.869V165.931A15.223,15.223,0,0,0,309.005,164.948Z" transform="translate(-214.046 -136.283)" fill="#f96e0f"/>
    <path id="Path_788" data-name="Path 788" d="M116.516,101.608V96.589a2.269,2.269,0,0,0-2.269-2.269H58.269A2.269,2.269,0,0,0,56,96.589v5.018Z" transform="translate(-18.758 -80.05)" fill="#3970d6"/>
    <path id="Path_789" data-name="Path 789" d="M112.272,139H51.756a.756.756,0,1,1,0-1.513h60.516a.756.756,0,1,1,0,1.513Z" transform="translate(-14.514 -116.69)" fill="#203284"/>
    <path id="Path_790" data-name="Path 790" d="M56,328.178v5.354a2.269,2.269,0,0,0,2.269,2.269h55.977a2.269,2.269,0,0,0,2.269-2.269v-5.354Z" transform="translate(-18.758 -278.528)" fill="#6796ee"/>
    <g id="Group_236" data-name="Group 236" transform="translate(36.486 13.513)">
      <path id="Path_791" data-name="Path 791" d="M139.312,324.691h-55.6a.756.756,0,0,1,0-1.513h55.6a.756.756,0,0,1,0,1.513Z" transform="translate(-78.124 -287.798)" fill="#203284"/>
      <path id="Path_792" data-name="Path 792" d="M198.8,447.781H175.822a.756.756,0,0,1,0-1.513H198.8a.756.756,0,0,1,0,1.513Z" transform="translate(-156.296 -392.266)" fill="#203284"/>
      <path id="Path_793" data-name="Path 793" d="M89.838,114.868a.756.756,0,0,1-.756-.756v-.022a.756.756,0,0,1,1.513,0v.022A.756.756,0,0,1,89.838,114.868Z" transform="translate(-83.321 -109.7)" fill="#203284"/>
      <path id="Path_794" data-name="Path 794" d="M109.163,114.868a.756.756,0,0,1-.756-.756v-.022a.756.756,0,0,1,1.513,0v.022A.756.756,0,0,1,109.163,114.868Z" transform="translate(-99.722 -109.7)" fill="#203284"/>
      <path id="Path_795" data-name="Path 795" d="M128.487,114.868a.756.756,0,0,1-.756-.756v-.022a.756.756,0,0,1,1.513,0v.022A.756.756,0,0,1,128.487,114.868Z" transform="translate(-116.122 -109.7)" fill="#203284"/>
      <path id="Path_796" data-name="Path 796" d="M110,133.836H54.026A3.029,3.029,0,0,1,51,130.811V92.346a3.029,3.029,0,0,1,3.026-3.026H110a3.029,3.029,0,0,1,3.026,3.026v5.018a.756.756,0,0,1-1.513,0V92.346A1.515,1.515,0,0,0,110,90.833H54.026a1.515,1.515,0,0,0-1.513,1.513v38.465a1.515,1.515,0,0,0,1.513,1.513H110a1.515,1.515,0,0,0,1.513-1.513v-29.28a.756.756,0,1,1,1.513,0v29.28A3.029,3.029,0,0,1,110,133.836Z" transform="translate(-51 -89.32)" fill="#203284"/>
    </g>
    <path id="Path_797" data-name="Path 797" d="M113.943,265.77H88.717a.758.758,0,1,1,0-1.515h25.226a.758.758,0,1,1,0,1.515Z" transform="translate(-45.882 -224.276)" fill="#ddd9e4"/>
    <path id="Path_798" data-name="Path 798" d="M104.866,223.778H88.717a.758.758,0,0,1,0-1.515h16.149a.758.758,0,0,1,0,1.515Z" transform="translate(-45.882 -188.637)" fill="#ffbe92"/>
    <path id="Path_799" data-name="Path 799" d="M113.943,285.636H88.717a.758.758,0,1,1,0-1.515h25.226a.758.758,0,1,1,0,1.515Z" transform="translate(-45.882 -241.136)" fill="#ddd9e4"/>
    <path id="Path_800" data-name="Path 800" d="M91.659,173.547a.754.754,0,0,1-.535-.221L89.3,171.505a.756.756,0,0,1,0-1.07l1.821-1.821a.756.756,0,0,1,1.07,1.07l-1.286,1.286,1.286,1.286a.756.756,0,0,1-.535,1.291Z" transform="translate(-46.835 -142.917)" fill="#f96e0f"/>
    <path id="Path_801" data-name="Path 801" d="M148.636,173.546a.756.756,0,0,1-.535-1.291l1.286-1.286-1.286-1.286a.756.756,0,1,1,1.07-1.07l1.821,1.821a.756.756,0,0,1,0,1.07l-1.821,1.821A.754.754,0,0,1,148.636,173.546Z" transform="translate(-96.737 -142.916)" fill="#f96e0f"/>
    <path id="Path_802" data-name="Path 802" d="M118.457,173.545a.757.757,0,0,1-.658-1.129l2.056-3.642a.756.756,0,1,1,1.317.744l-2.056,3.642a.756.756,0,0,1-.659.385Z" transform="translate(-71.124 -142.915)" fill="#f96e0f"/>
    <path id="Path_803" data-name="Path 803" d="M362.924,237.387H360.5a.454.454,0,0,1-.454-.454v-9.208a.454.454,0,0,1,.454-.454h2.421a.454.454,0,0,1,.454.454v9.208A.454.454,0,0,1,362.924,237.387Z" transform="translate(-276.808 -192.887)" fill="#ffe783"/>
    <path id="Path_804" data-name="Path 804" d="M330.211,257.085h-2.421a.454.454,0,0,1-.454-.454v-5.7a.454.454,0,0,1,.454-.454h2.421a.454.454,0,0,1,.454.454v5.7A.454.454,0,0,1,330.211,257.085Z" transform="translate(-249.044 -212.585)" fill="#ffe783"/>
    <path id="Path_805" data-name="Path 805" d="M395.637,222.557h-2.421a.454.454,0,0,1-.454-.454V210.251a.454.454,0,0,1,.454-.454h2.421a.454.454,0,0,1,.454.454V222.1A.454.454,0,0,1,395.637,222.557Z" transform="translate(-304.572 -178.057)" fill="#ffe783"/>
    <circle id="Ellipse_36" data-name="Ellipse 36" cx="0.846" cy="0.846" r="0.846" transform="translate(74.634 25.476)" fill="#3970d6"/>
    <circle id="Ellipse_37" data-name="Ellipse 37" cx="0.846" cy="0.846" r="0.846" transform="translate(72.075 25.476)" fill="#3970d6"/>
    <circle id="Ellipse_38" data-name="Ellipse 38" cx="0.846" cy="0.846" r="0.846" transform="translate(69.517 25.476)" fill="#3970d6"/>
  </g>
</svg>
